<svg xmlns="http://www.w3.org/2000/svg" xmlns:xlink="http://www.w3.org/1999/xlink" contentStyleType="text/css" height="517.2px" preserveAspectRatio="none" style="width:1410px;height:517px;background:#FFFFFF;" version="1.1" viewBox="0 0 1410 517" width="1410px" zoomAndPan="magnify"><defs/><g><!--entity admin--><g id="elem_admin"><ellipse cx="68.0836" cy="322.8" fill="#F1F1F1" rx="9.6" ry="9.6" style="stroke:#181818;stroke-width:0.6;"/><path d="M68.0836,332.4 L68.0836,364.8 M52.4836,342 L83.6836,342 M68.0836,364.8 L52.4836,382.8 M68.0836,364.8 L83.6836,382.8 " fill="none" style="stroke:#181818;stroke-width:0.6;"/><text fill="#000000" font-family="sans-serif" font-size="16.8" lengthAdjust="spacing" textLength="121.7672" x="7.2" y="402.7289">&#1040;&#1076;&#1084;&#1080;&#1085;&#1080;&#1089;&#1090;&#1088;&#1072;&#1090;&#1086;&#1088;</text></g><!--entity user--><g id="elem_user"><ellipse cx="68.0408" cy="110.4" fill="#F1F1F1" rx="9.6" ry="9.6" style="stroke:#181818;stroke-width:0.6;"/><path d="M68.0408,120 L68.0408,152.4 M52.4408,129.6 L83.6408,129.6 M68.0408,152.4 L52.4408,170.4 M68.0408,152.4 L83.6408,170.4 " fill="none" style="stroke:#181818;stroke-width:0.6;"/><text fill="#000000" font-family="sans-serif" font-size="16.8" lengthAdjust="spacing" textLength="110.8816" x="12.6" y="190.3289">&#1055;&#1086;&#1083;&#1100;&#1079;&#1086;&#1074;&#1072;&#1090;&#1077;&#1083;&#1100;</text></g><g id="elem_authUser"><ellipse cx="361.7229" cy="147.8246" fill="#8FBC8F" rx="154.7229" ry="33.8246" style="stroke:#181818;stroke-width:0.6;"/><text fill="#000000" font-family="sans-serif" font-size="16.8" lengthAdjust="spacing" textLength="266.4375" x="228.5042" y="152.3808">&#1040;&#1074;&#1090;&#1086;&#1088;&#1080;&#1079;&#1086;&#1074;&#1072;&#1090;&#1100;&#1089;&#1103; &#1082;&#1072;&#1082; &#1087;&#1086;&#1083;&#1100;&#1079;&#1086;&#1074;&#1072;&#1090;&#1077;&#1083;&#1100;</text></g><g id="elem_find"><ellipse cx="817.29" cy="254.298" fill="#8FBC8F" rx="135.09" ry="29.898" style="stroke:#181818;stroke-width:0.6;"/><text fill="#000000" font-family="sans-serif" font-size="16.8" lengthAdjust="spacing" textLength="223.6664" x="705.4568" y="258.8542">&#1053;&#1072;&#1081;&#1090;&#1080; &#1082;&#1072;&#1088;&#1090;&#1080;&#1085;&#1091; &#1087;&#1086; &#1082;&#1088;&#1080;&#1090;&#1077;&#1088;&#1080;&#1103;&#1084;</text></g><g id="elem_watchFav"><ellipse cx="817.49" cy="40.618" fill="#8FBC8F" rx="152.69" ry="33.418" style="stroke:#181818;stroke-width:0.6;"/><text fill="#000000" font-family="sans-serif" font-size="16.8" lengthAdjust="spacing" textLength="262.057" x="686.4615" y="45.1743">&#1055;&#1088;&#1086;&#1089;&#1084;&#1086;&#1090;&#1088;&#1077;&#1090;&#1100; &#1080;&#1079;&#1073;&#1088;&#1072;&#1085;&#1085;&#1099;&#1077; &#1082;&#1072;&#1088;&#1090;&#1080;&#1085;&#1099;</text></g><g id="elem_watch"><ellipse cx="817.1591" cy="148.6718" fill="#8FBC8F" rx="146.9591" ry="32.2718" style="stroke:#181818;stroke-width:0.6;"/><text fill="#000000" font-family="sans-serif" font-size="16.8" lengthAdjust="spacing" textLength="249.6539" x="692.3321" y="153.2281">&#1055;&#1088;&#1086;&#1089;&#1084;&#1086;&#1090;&#1088;&#1077;&#1090;&#1100; &#1090;&#1077;&#1082;&#1091;&#1097;&#1080;&#1077; &#1074;&#1099;&#1089;&#1090;&#1072;&#1074;&#1082;&#1080;</text></g><g id="elem_like"><ellipse cx="1257.694" cy="96.2588" fill="#8FBC8F" rx="142.894" ry="31.4588" style="stroke:#181818;stroke-width:0.6;"/><text fill="#000000" font-family="sans-serif" font-size="16.8" lengthAdjust="spacing" textLength="240.8027" x="1137.2926" y="100.815">&#1044;&#1086;&#1073;&#1072;&#1074;&#1080;&#1090;&#1100; &#1082;&#1072;&#1088;&#1090;&#1080;&#1085;&#1091; &#1074; &#1080;&#1079;&#1073;&#1088;&#1072;&#1085;&#1085;&#1086;&#1077;</text></g><g id="elem_dislike"><ellipse cx="1257.7252" cy="201.745" fill="#8FBC8F" rx="145.3252" ry="31.945" style="stroke:#181818;stroke-width:0.6;"/><text fill="#000000" font-family="sans-serif" font-size="16.8" lengthAdjust="spacing" textLength="246.102" x="1134.6742" y="206.3013">&#1059;&#1076;&#1072;&#1083;&#1080;&#1090;&#1100; &#1082;&#1072;&#1088;&#1090;&#1080;&#1085;&#1091; &#1080;&#1079; &#1080;&#1079;&#1073;&#1088;&#1072;&#1085;&#1085;&#1086;&#1075;&#1086;</text></g><g id="elem_switch"><ellipse cx="817.4298" cy="472.726" fill="#8FBC8F" rx="174.2298" ry="37.726" style="stroke:#181818;stroke-width:0.6;"/><text fill="#000000" font-family="sans-serif" font-size="16.8" lengthAdjust="spacing" textLength="308.052" x="663.4038" y="477.2822">&#1048;&#1079;&#1084;&#1077;&#1085;&#1080;&#1090;&#1100; &#1085;&#1072;&#1079;&#1074;&#1072;&#1085;&#1080;&#1077;/&#1086;&#1087;&#1080;&#1089;&#1072;&#1085;&#1080;&#1077; &#1074;&#1099;&#1089;&#1090;&#1072;&#1074;&#1082;&#1080;</text></g><g id="elem_authAdmin"><ellipse cx="361.9142" cy="360.1428" fill="#8FBC8F" rx="160.3142" ry="34.9428" style="stroke:#181818;stroke-width:0.6;"/><text fill="#000000" font-family="sans-serif" font-size="16.8" lengthAdjust="spacing" textLength="278.4387" x="222.6948" y="364.6991">&#1040;&#1074;&#1090;&#1086;&#1088;&#1080;&#1079;&#1086;&#1074;&#1072;&#1090;&#1100;&#1089;&#1103; &#1082;&#1072;&#1082; &#1072;&#1076;&#1084;&#1080;&#1085;&#1080;&#1089;&#1090;&#1088;&#1072;&#1090;&#1086;&#1088;</text></g><g id="elem_watch2"><ellipse cx="817.1591" cy="359.8718" fill="#8FBC8F" rx="146.9591" ry="32.2718" style="stroke:#181818;stroke-width:0.6;"/><text fill="#000000" font-family="sans-serif" font-size="16.8" lengthAdjust="spacing" textLength="249.6539" x="692.3321" y="364.4281">&#1055;&#1088;&#1086;&#1089;&#1084;&#1086;&#1090;&#1088;&#1077;&#1090;&#1100; &#1090;&#1077;&#1082;&#1091;&#1097;&#1080;&#1077; &#1074;&#1099;&#1089;&#1090;&#1072;&#1074;&#1082;&#1080;</text></g><!--link user to authUser--><g id="link_user_authUser"><path d="M123.168,147.6 C147.216,147.6 176.856,147.6 206.94,147.6 " fill="none" id="user-authUser" style="stroke:#181818;stroke-width:1.2;"/></g><!--link admin to authAdmin--><g id="link_admin_authAdmin"><path d="M128.712,360 C150.204,360 175.596,360 201.54,360 " fill="none" id="admin-authAdmin" style="stroke:#181818;stroke-width:1.2;"/></g><!--reverse link authUser to find--><g id="link_authUser_find"><path d="M474.5039,173.8881 C551.9759,192.1521 649.584,215.172 723.924,232.692 " fill="none" id="authUser-backto-find" style="stroke:#181818;stroke-width:1.2;stroke-dasharray:7.0,7.0;"/><polygon fill="#181818" points="467.496,172.236,476.9064,179.3861,473.3359,173.6128,479.1092,170.0422,467.496,172.236" style="stroke:#181818;stroke-width:1.2;"/><text fill="#000000" font-family="sans-serif" font-size="15.6" lengthAdjust="spacing" textLength="46.8381" x="559.2" y="190.834">extend</text></g><!--reverse link authUser to watch--><g id="link_authUser_watch"><path d="M523.884,148.0272 C573.408,148.1592 620.916,148.284 669.876,148.416 " fill="none" id="authUser-backto-watch" style="stroke:#181818;stroke-width:1.2;stroke-dasharray:7.0,7.0;"/><polygon fill="#181818" points="516.684,148.008,527.4712,152.8368,522.684,148.024,527.4968,143.2368,516.684,148.008" style="stroke:#181818;stroke-width:1.2;"/><text fill="#000000" font-family="sans-serif" font-size="15.6" lengthAdjust="spacing" textLength="46.8381" x="559.2" y="144.034">extend</text></g><!--reverse link authUser to watchFav--><g id="link_authUser_watchFav"><path d="M474.5039,121.312 C548.0639,103.972 639.072,82.512 712.416,65.22 " fill="none" id="authUser-backto-watchFav" style="stroke:#181818;stroke-width:1.2;stroke-dasharray:7.0,7.0;"/><polygon fill="#181818" points="467.496,122.964,479.1092,125.158,473.3359,121.5874,476.9066,115.8141,467.496,122.964" style="stroke:#181818;stroke-width:1.2;"/><text fill="#000000" font-family="sans-serif" font-size="15.6" lengthAdjust="spacing" textLength="46.8381" x="559.2" y="86.434">extend</text></g><!--reverse link watch to like--><g id="link_watch_like"><path d="M954.0082,132.4582 C1012.4362,125.4142 1074.168,117.972 1132.092,110.988 " fill="none" id="watch-backto-like" style="stroke:#181818;stroke-width:1.2;stroke-dasharray:7.0,7.0;"/><polygon fill="#181818" points="946.86,133.32,958.1569,136.7928,952.8169,132.6018,957.0078,127.2618,946.86,133.32" style="stroke:#181818;stroke-width:1.2;"/><text fill="#000000" font-family="sans-serif" font-size="15.6" lengthAdjust="spacing" textLength="46.8381" x="1028.4" y="115.234">extend</text></g><!--reverse link watch to dislike--><g id="link_watch_dislike"><path d="M954.0081,165.1427 C1011.6801,172.1027 1072.38,179.412 1129.836,186.348 " fill="none" id="watch-backto-dislike" style="stroke:#181818;stroke-width:1.2;stroke-dasharray:7.0,7.0;"/><polygon fill="#181818" points="946.86,164.28,957.0071,170.3394,952.8168,164.9989,958.1573,160.8086,946.86,164.28" style="stroke:#181818;stroke-width:1.2;"/><text fill="#000000" font-family="sans-serif" font-size="15.6" lengthAdjust="spacing" textLength="46.8381" x="1028.4" y="170.434">extend</text></g><!--reverse link authAdmin to switch--><g id="link_authAdmin_switch"><path d="M475.0466,387.9001 C545.1026,405.3481 630.156,426.528 701.976,444.408 " fill="none" id="authAdmin-backto-switch" style="stroke:#181818;stroke-width:1.2;stroke-dasharray:7.0,7.0;"/><polygon fill="#181818" points="468.06,386.16,477.3798,393.4278,473.8821,387.6101,479.6999,384.1124,468.06,386.16" style="stroke:#181818;stroke-width:1.2;"/><text fill="#000000" font-family="sans-serif" font-size="15.6" lengthAdjust="spacing" textLength="46.8381" x="559.2" y="405.634">extend</text></g><!--reverse link authAdmin to find--><g id="link_authAdmin_find"><path d="M479.092,332.9375 C555.796,315.0575 650.328,293.016 723.168,276.036 " fill="none" id="authAdmin-backto-find" style="stroke:#181818;stroke-width:1.2;stroke-dasharray:7.0,7.0;"/><polygon fill="#181818" points="472.08,334.572,483.6877,336.7949,477.9233,333.2099,481.5083,327.4455,472.08,334.572" style="stroke:#181818;stroke-width:1.2;"/><text fill="#000000" font-family="sans-serif" font-size="15.6" lengthAdjust="spacing" textLength="46.8381" x="559.2" y="300.034">extend</text></g><!--reverse link authAdmin to watch2--><g id="link_authAdmin_watch2"><path d="M528.7672,363.2731 C541.0912,363.4531 546.144,363.492 558,363.6 C594.504,363.936 633.924,363.696 670.68,363.204 " fill="none" id="authAdmin-backto-watch2" style="stroke:#181818;stroke-width:1.2;stroke-dasharray:7.0,7.0;"/><polygon fill="#181818" points="521.568,363.168,532.2967,368.1252,527.5674,363.2556,532.4369,358.5262,521.568,363.168" style="stroke:#181818;stroke-width:1.2;"/><text fill="#000000" font-family="sans-serif" font-size="15.6" lengthAdjust="spacing" textLength="46.8381" x="559.2" y="358.834">extend</text></g><!--SRC=[fL8xRjj05EnvYktY59A0b4QQV10VmF015kHQMeWY1N9b1mW2o7OLo81Jf4WJkCW5P2Q46Lcah_3sHfvzD4d8be80KI6IRzxCctqxBqR6JDFzmM0QoiZC9c7VZoU3MQfwliHVeEKmaHClLCT6c5WaUZWo8j29yesE8my_wPiu4VILVjEQ2Ygfi6VstCvfQS-fidCXKo63YOwQpckgwCvUqYsU6NVbxjlrOMxYUUbOHrE9iUxRsH2VlBVI7m-JU1O5x-8GAkzbCZvKyY1HAl8-UzuU36JrG9XefUqbp5m9Mj6ILeBkjuz-oHvdPdJavk_H3tJ_0LWmqSxTAvNsWWLGSpCSbvzNj6R-iOu2SAzHhEmPTb7n5d9dGh2d6xSKBAYq2yetfHSiSIgDF_eWJtRAiE6LlR1Vm894PXTksL3D85Tq8b3uXZFUC5BK5fuS9NjY2kqv2uHwhC3_YGjTqjqEDgZF-R-eOeL0fom2bUzeMSDqsUYKwBvrotSboWUWtRl8D8NjXqfFTNsgVxdbvQuejlVyXlFutrj-XVYxo8fUhuiFPxsfr8CQJBpkzpad-q9zD0fvsK1OyoyGaj6YN638RNfB-V4EMiHhxJ1SBtHZM0S-izX1zRaxrGS0]--></g></svg>